<svg width="114" height="109" viewBox="0 0 114 109" fill="none" xmlns="http://www.w3.org/2000/svg">
<path d="M86.8709 39.5917C83.5496 39.5917 80.8626 42.1594 80.8626 45.3287V65.6641C80.8626 67.1868 81.4956 68.6472 82.6224 69.7239C83.7491 70.8007 85.2774 71.4056 86.8709 71.4056C88.4644 71.4056 89.9927 70.8007 91.1195 69.7239C92.2463 68.6472 92.8793 67.1868 92.8793 65.6641V45.3287C92.8793 42.1594 90.1922 39.5917 86.8709 39.5917ZM27.2664 39.5917C23.9451 39.5917 21.258 42.1594 21.258 45.3287V65.6641C21.258 67.1868 21.891 68.6472 23.0178 69.7239C24.1446 70.8007 25.6728 71.4056 27.2664 71.4056C28.8599 71.4056 30.3881 70.8007 31.5149 69.7239C32.6417 68.6472 33.2747 67.1868 33.2747 65.6641V45.3287C33.2753 44.5747 33.1203 43.8281 32.8185 43.1315C32.5167 42.4349 32.0741 41.802 31.516 41.2691C30.9579 40.7362 30.2953 40.3137 29.566 40.0259C28.8368 39.7381 28.0553 39.5905 27.2664 39.5917ZM69.0243 22.4929L72.6322 16.2621C72.7376 16.0847 72.8051 15.889 72.8308 15.6865C72.8564 15.484 72.8397 15.2786 72.7816 15.0823C72.7234 14.886 72.6251 14.7027 72.4922 14.543C72.3592 14.3833 72.1945 14.2505 72.0074 14.1522C71.8208 14.0517 71.6152 13.9876 71.4025 13.9637C71.1898 13.9398 70.9743 13.9565 70.7684 14.0129C70.5625 14.0693 70.3704 14.1642 70.2033 14.2922C70.0361 14.4201 69.8972 14.5786 69.7947 14.7583L66.0882 21.1327C63.326 20.0778 60.2819 19.4807 57.0686 19.4807C53.8554 19.4807 50.8113 20.0733 48.049 21.1282L44.3425 14.7627C44.24 14.583 44.1012 14.4246 43.934 14.2967C43.7669 14.1687 43.5748 14.0738 43.3689 14.0174C43.163 13.961 42.9475 13.9443 42.7348 13.9682C42.5221 13.9921 42.3165 14.0562 42.1299 14.1567C41.9437 14.2559 41.7799 14.3892 41.6477 14.5489C41.5155 14.7087 41.4175 14.8918 41.3595 15.0878C41.3015 15.2838 41.2845 15.4888 41.3094 15.691C41.3344 15.8933 41.4009 16.0889 41.5051 16.2666L45.113 22.4974C38.616 26.0347 34.2753 32.3598 34.2753 39.5917C34.2753 39.6411 34.2753 39.686 34.2847 39.7443C34.2753 39.7712 34.2753 39.8027 34.2753 39.8296V39.8341H79.8572V39.5917C79.8619 32.3598 75.5213 26.0392 69.0243 22.4929ZM46.5458 31.3273C46.332 31.3259 46.1206 31.2842 45.9237 31.2046C45.7268 31.1251 45.5483 31.0093 45.3982 30.8638C45.0951 30.57 44.9266 30.1732 44.9298 29.7607C44.9329 29.3481 45.1074 28.9537 45.4148 28.6641C45.7223 28.3745 46.1375 28.2135 46.5693 28.2164C47.001 28.2194 47.4137 28.3861 47.7168 28.6799C48.0199 28.9738 48.1884 29.3706 48.1853 29.7831C48.1822 30.1956 48.0077 30.5901 47.7002 30.8797C47.3927 31.1693 46.9775 31.3303 46.5458 31.3273ZM67.5915 31.3273C67.1818 31.2975 66.7989 31.121 66.5196 30.833C66.2403 30.545 66.0851 30.1668 66.0851 29.7741C66.0851 29.3815 66.2403 29.0033 66.5196 28.7153C66.7989 28.4273 67.1818 28.2507 67.5915 28.2209C68.0226 28.2209 68.436 28.3846 68.7409 28.6758C69.0457 28.9671 69.2169 29.3622 69.2169 29.7741C69.2169 30.1861 69.0457 30.5811 68.7409 30.8724C68.436 31.1637 68.0226 31.3273 67.5915 31.3273ZM34.2753 72.8556C34.2753 75.7555 36.7416 78.1122 39.7905 78.1122H42.5433V88.8904C42.5433 90.4132 43.1763 91.8736 44.3031 92.9503C45.4299 94.027 46.9582 94.6319 48.5517 94.6319C50.1452 94.6319 51.6735 94.027 52.8002 92.9503C53.927 91.8736 54.5601 90.4132 54.5601 88.8904V78.1122H59.5678V88.8904C59.5678 92.0642 62.2549 94.6274 65.5668 94.6274C68.8975 94.6274 71.5846 92.0642 71.5846 88.8904V78.1122H74.3374C77.3815 78.1122 79.8525 75.76 79.8525 72.8556V41.0192H34.2753V72.8556Z" fill="white"/>
</svg>
