<svg width="114" height="109" viewBox="0 0 114 109" fill="none" xmlns="http://www.w3.org/2000/svg">
<path d="M64.3701 32.3911L80.8121 48.1028M33.835 61.5699L50.277 77.2816M50.277 32.3911L33.835 48.1028M80.8121 61.5699L64.3701 77.2816" stroke="white" stroke-width="4.16667" stroke-linecap="round"/>
<path d="M57.3235 34.6356C62.5125 34.6356 66.719 30.616 66.719 25.6575C66.719 20.6991 62.5125 16.6794 57.3235 16.6794C52.1346 16.6794 47.9281 20.6991 47.9281 25.6575C47.9281 30.616 52.1346 34.6356 57.3235 34.6356Z" stroke="white" stroke-width="4.16667"/>
<path d="M57.3235 92.9933C62.5125 92.9933 66.719 88.9737 66.719 84.0152C66.719 79.0567 62.5125 75.0371 57.3235 75.0371C52.1346 75.0371 47.9281 79.0567 47.9281 84.0152C47.9281 88.9737 52.1346 92.9933 57.3235 92.9933Z" stroke="white" stroke-width="4.16667"/>
<path d="M26.7884 63.8144C31.9774 63.8144 36.1838 59.7947 36.1838 54.8363C36.1838 49.8778 31.9774 45.8582 26.7884 45.8582C21.5995 45.8582 17.393 49.8778 17.393 54.8363C17.393 59.7947 21.5995 63.8144 26.7884 63.8144Z" stroke="white" stroke-width="4.16667"/>
<path d="M87.8587 63.8144C93.0476 63.8144 97.2541 59.7947 97.2541 54.8363C97.2541 49.8778 93.0476 45.8582 87.8587 45.8582C82.6697 45.8582 78.4632 49.8778 78.4632 54.8363C78.4632 59.7947 82.6697 63.8144 87.8587 63.8144Z" stroke="white" stroke-width="4.16667"/>
<path d="M26.7884 57.0808C28.0857 57.0808 29.1373 56.0759 29.1373 54.8363C29.1373 53.5967 28.0857 52.5918 26.7884 52.5918C25.4912 52.5918 24.4396 53.5967 24.4396 54.8363C24.4396 56.0759 25.4912 57.0808 26.7884 57.0808Z" stroke="white" stroke-width="4.16667"/>
<path d="M57.3235 86.2598C58.6208 86.2598 59.6724 85.2549 59.6724 84.0153C59.6724 82.7757 58.6208 81.7708 57.3235 81.7708C56.0263 81.7708 54.9747 82.7757 54.9747 84.0153C54.9747 85.2549 56.0263 86.2598 57.3235 86.2598Z" stroke="white" stroke-width="4.16667"/>
</svg>
