<svg width="103" height="98" viewBox="0 0 103 98" fill="none" xmlns="http://www.w3.org/2000/svg">
<path d="M44.9914 66.6989C42.7929 66.4658 40.6304 65.9879 38.548 65.2748C38.6114 63.8446 38.6495 62.3537 38.6495 60.8023V58.76C40.6155 59.6569 42.7527 60.2811 44.9914 60.5902V45.6518C44.9914 43.2409 45.9937 40.9287 47.7777 39.2239C49.5617 37.5192 51.9813 36.5615 54.5043 36.5615H70.1371C69.6313 33.2034 68.29 30.0103 66.2257 27.2501C64.1613 24.4899 61.4342 22.2431 58.2732 20.6984C55.1123 19.1537 51.6096 18.356 48.0593 18.3725C44.509 18.3889 41.0146 19.2189 37.8694 20.7928C37.3678 18.8107 36.5416 16.9167 35.4215 15.181C39.5327 13.2201 44.0787 12.2368 48.6729 12.3146C53.2672 12.3925 57.7738 13.5293 61.8097 15.6284C65.8455 17.7275 69.2913 20.7267 71.8541 24.3712C74.4169 28.0157 76.0209 32.1976 76.5297 36.5615H86.2138C88.7368 36.5615 91.1564 37.5192 92.9404 39.2239C94.7245 40.9287 95.7267 43.2409 95.7267 45.6518V75.9529C95.7267 78.3638 94.7245 80.6759 92.9404 82.3807C91.1564 84.0855 88.7368 85.0432 86.2138 85.0432H54.5043C51.9813 85.0432 49.5617 84.0855 47.7777 82.3807C45.9937 80.6759 44.9914 78.3638 44.9914 75.9529V66.6989ZM76.5297 42.6217C75.8092 48.7704 72.9229 54.5024 68.3446 58.8774C63.7663 63.2523 57.7678 66.0103 51.3333 66.6989V75.9529C51.3333 76.7565 51.6674 77.5272 52.2621 78.0955C52.8567 78.6637 53.6633 78.983 54.5043 78.983H86.2138C87.0548 78.983 87.8614 78.6637 88.456 78.0955C89.0507 77.5272 89.3848 76.7565 89.3848 75.9529V45.6518C89.3848 44.8481 89.0507 44.0774 88.456 43.5092C87.8614 42.9409 87.0548 42.6217 86.2138 42.6217H76.5297ZM70.1371 42.6217H54.5043C53.6633 42.6217 52.8567 42.9409 52.2621 43.5092C51.6674 44.0774 51.3333 44.8481 51.3333 45.6518V60.5902C56.0769 59.935 60.4715 57.831 63.8605 54.5925C67.2496 51.3539 69.4514 47.1546 70.1371 42.6217ZM31.0075 46.0215C30.3416 43.6822 29.2635 41.3369 27.4116 39.537C30.405 36.8281 32.3076 32.5132 32.3076 27.4711C32.3076 23.2472 31.4134 20.3443 29.7962 18.0232C29.0786 17.025 28.2493 16.1044 27.3228 15.278C26.9678 14.9504 26.6084 14.6272 26.2447 14.3083C25.8579 13.9629 25.5027 13.6478 25.0398 13.2054C24.0885 12.2963 23.9807 11.5691 23.9807 11.1873C23.9817 10.9751 24.0181 10.7644 24.0885 10.5631C24.3784 9.96391 24.4557 9.29062 24.3084 8.64563C24.1612 8.00063 23.7976 7.41922 23.2729 6.98982C22.7481 6.56042 22.091 6.30652 21.4014 6.26674C20.7118 6.22696 20.0275 6.40346 19.4525 6.76942L19.4398 6.77548L19.4208 6.7876L19.3637 6.82396L19.1735 6.94516C18.2222 7.59355 17.3057 8.28731 16.4274 9.02382C14.842 10.3631 12.7745 12.3448 11.3095 14.7083C10.0307 16.6677 9.0043 18.7677 8.25272 20.9624C7.49169 23.1381 6.93994 25.4955 6.93994 27.4711C6.93994 32.5132 8.84251 36.822 11.8359 39.5431C9.98406 41.3369 8.90593 43.6822 8.24003 46.0275C6.93994 50.5848 6.93994 56.2208 6.93994 60.5781V60.8023C6.93994 73.2743 9.38158 80.6798 12.1467 85.0856C13.5355 87.2915 14.9815 88.7157 16.1928 89.6126C16.8382 90.0937 17.5407 90.5005 18.2856 90.8247C18.7164 90.9749 19.1666 91.0687 19.6238 91.1034C20.1565 91.1034 20.9619 90.8247 20.9619 90.8247C21.7069 90.5005 22.4093 90.0937 23.0547 89.6126C24.2597 88.7157 25.7183 87.2915 27.1009 85.0856C29.866 80.6859 32.3076 73.2743 32.3076 60.8023V60.5842C32.3076 56.2208 32.3076 50.5909 31.0075 46.0215ZM16.3704 43.7792C17.087 43.0883 18.0446 42.6217 19.6238 42.6217C21.2092 42.6217 22.1605 43.0944 22.8772 43.7731C23.6762 44.5428 24.3675 45.7912 24.8875 47.6153C25.9403 51.3181 25.9657 56.1784 25.9657 60.8023C25.9657 72.5713 23.6509 78.8012 21.6595 81.9707C20.8985 83.1827 20.1819 83.9645 19.6238 84.4554C18.8264 83.7227 18.141 82.8862 17.588 81.9707C15.5966 78.7951 13.2819 72.5713 13.2819 60.8023C13.2819 56.1784 13.3072 51.3181 14.36 47.6153C14.88 45.7972 15.5713 44.5488 16.3704 43.7792ZM19.6238 36.5615C17.1821 36.5615 13.2819 33.9677 13.2819 27.4711C13.2819 26.4227 13.6116 24.7622 14.2712 22.8835C14.8722 21.1099 15.7009 19.4143 16.7382 17.8354C17.2899 16.9445 18.0066 16.0779 18.7803 15.284C19.2179 16.0234 19.795 16.7688 20.556 17.496C21.019 17.9384 21.6215 18.4717 22.1352 18.9323L22.9216 19.6353C23.5875 20.2534 24.1012 20.7928 24.5134 21.3927C25.2744 22.4775 25.9657 24.1198 25.9657 27.4711C25.9657 33.9677 22.0654 36.5615 19.6238 36.5615Z" fill="white"/>
</svg>
