<svg width="100" height="100" viewBox="0 0 100 100" fill="none" xmlns="http://www.w3.org/2000/svg">
<path d="M50 6.66663V63.3333M50 63.3333V76.6666C50 79.3037 49.218 81.8816 47.7529 84.0742C46.2878 86.2669 44.2054 87.9759 41.7691 88.985C39.3328 89.9942 36.6519 90.2582 34.0654 89.7438C31.479 89.2293 29.1033 87.9594 27.2386 86.0947C25.3739 84.23 24.104 81.8542 23.5895 79.2678C23.075 76.6814 23.3391 74.0005 24.3483 71.5642C25.3574 69.1278 27.0664 67.0454 29.2591 65.5804C31.4517 64.1153 34.0296 63.3333 36.6667 63.3333M50 63.3333H36.6667M36.6667 63.3333C33.1304 63.3333 29.739 61.9285 27.2386 59.428C24.7381 56.9276 23.3333 53.5362 23.3333 50C23.3333 46.4637 24.7381 43.0724 27.2386 40.5719C29.739 38.0714 33.1304 36.6666 36.6667 36.6666M36.6667 36.6666H50M36.6667 36.6666H63.3333M36.6667 36.6666C33.1304 36.6666 29.739 35.2619 27.2386 32.7614C24.7381 30.2609 23.3333 26.8695 23.3333 23.3333C23.3333 19.7971 24.7381 16.4057 27.2386 13.9052C29.739 11.4047 33.1304 9.99996 36.6667 9.99996H63.3333C66.8695 9.99996 70.2609 11.4047 72.7614 13.9052C75.2619 16.4057 76.6667 19.7971 76.6667 23.3333C76.6667 26.8695 75.2619 30.2609 72.7614 32.7614C70.2609 35.2619 66.8695 36.6666 63.3333 36.6666M63.3333 36.6666C66.8695 36.6666 70.2609 38.0714 72.7614 40.5719C75.2619 43.0724 76.6667 46.4637 76.6667 50C76.6667 53.5362 75.2619 56.9276 72.7614 59.428C70.2609 61.9285 66.8695 63.3333 63.3333 63.3333C59.7971 63.3333 56.4057 61.9285 53.9052 59.428C51.4047 56.9276 50 53.5362 50 50C50 46.4637 51.4047 43.0724 53.9052 40.5719C56.4057 38.0714 59.7971 36.6666 63.3333 36.6666Z" stroke="white" stroke-width="6.66667"/>
</svg>
