<svg width="113" height="113" viewBox="0 0 113 113" fill="none" xmlns="http://www.w3.org/2000/svg">
<g clip-path="url(#clip0_5_84)">
<path d="M110.047 51.6363L61.5001 3.09069C58.7061 0.294965 54.1717 0.294965 51.3733 3.09069L41.2932 13.1726L54.0809 25.9603C57.0537 24.9571 60.4607 25.63 62.8293 27.9985C65.2101 30.3821 65.8778 33.8181 64.8499 36.8006L77.1743 49.1259C80.1559 48.098 83.5973 48.7621 85.9772 51.1474C89.3067 54.4743 89.3067 59.8675 85.9772 63.1962C85.186 63.9878 84.2466 64.6157 83.2126 65.0442C82.1786 65.4726 81.0703 65.6931 79.9511 65.6931C78.8319 65.6931 77.7236 65.4726 76.6896 65.0442C75.6556 64.6157 74.7162 63.9878 73.925 63.1962C72.7362 62.0067 71.9259 60.4921 71.5959 58.8431C71.266 57.1941 71.4312 55.4843 72.0708 53.929L60.5779 42.4361L60.5761 72.6844C61.41 73.095 62.1713 73.6389 62.8301 74.2945C66.1579 77.6214 66.1579 83.0129 62.8301 86.3468C59.5015 89.6736 54.1065 89.6736 50.7814 86.3468C47.4536 83.0138 47.4536 77.6222 50.7814 74.2945C51.5787 73.496 52.5269 72.8642 53.5709 72.436V41.9076C52.5261 41.4806 51.5775 40.8483 50.7814 40.0482C48.2605 37.529 47.6536 33.8296 48.9466 30.7326L36.3394 18.1254L3.05145 51.4117C1.70848 52.755 0.954041 54.5768 0.954041 56.4764C0.954041 58.3759 1.70848 60.1977 3.05145 61.5411L51.5997 110.087C54.3954 112.882 58.9281 112.882 61.7282 110.087L110.048 61.7666C111.391 60.4228 112.145 58.6009 112.145 56.7012C112.145 54.8016 111.39 52.9798 110.047 51.6363Z" fill="#F34F29"/>
</g>
<defs>
<clipPath id="clip0_5_84">
<rect width="112.745" height="112.745" fill="white" transform="translate(0.176453 0.215698)"/>
</clipPath>
</defs>
</svg>
