<svg width="100" height="100" viewBox="0 0 100 100" fill="none" xmlns="http://www.w3.org/2000/svg">
<path d="M50 8.33331C44.5282 8.33331 39.1101 9.41105 34.0548 11.505C28.9996 13.5989 24.4063 16.6681 20.5372 20.5372C12.7232 28.3512 8.33333 38.9493 8.33333 50C8.33333 68.4166 20.2917 84.0416 36.8333 89.5833C38.9167 89.9166 39.5833 88.625 39.5833 87.5V80.4583C28.0417 82.9583 25.5833 74.875 25.5833 74.875C23.6667 70.0416 20.9583 68.75 20.9583 68.75C17.1667 66.1666 21.25 66.25 21.25 66.25C25.4167 66.5416 27.625 70.5416 27.625 70.5416C31.25 76.875 37.375 75 39.75 74C40.125 71.2916 41.2083 69.4583 42.375 68.4166C33.125 67.375 23.4167 63.7916 23.4167 47.9166C23.4167 43.2916 25 39.5833 27.7083 36.625C27.2917 35.5833 25.8333 31.25 28.125 25.625C28.125 25.625 31.625 24.5 39.5833 29.875C42.875 28.9583 46.4583 28.5 50 28.5C53.5417 28.5 57.125 28.9583 60.4167 29.875C68.375 24.5 71.875 25.625 71.875 25.625C74.1667 31.25 72.7083 35.5833 72.2917 36.625C75 39.5833 76.5833 43.2916 76.5833 47.9166C76.5833 63.8333 66.8333 67.3333 57.5417 68.375C59.0417 69.6666 60.4167 72.2083 60.4167 76.0833V87.5C60.4167 88.625 61.0833 89.9583 63.2083 89.5833C79.75 84 91.6667 68.4166 91.6667 50C91.6667 44.5282 90.5889 39.1101 88.495 34.0548C86.401 28.9996 83.3319 24.4063 79.4628 20.5372C75.5937 16.6681 71.0004 13.5989 65.9451 11.505C60.8899 9.41105 55.4717 8.33331 50 8.33331Z" fill="#111111"/>
</svg>
