<svg width="100" height="100" viewBox="0 0 100 100" fill="none" xmlns="http://www.w3.org/2000/svg">
<g clip-path="url(#clip0_62_887)">
<path d="M75 12.5C78.3152 12.5 81.4946 13.817 83.8388 16.1612C86.183 18.5054 87.5 21.6848 87.5 25V75C87.5 78.3152 86.183 81.4946 83.8388 83.8388C81.4946 86.183 78.3152 87.5 75 87.5H25C21.6848 87.5 18.5054 86.183 16.1612 83.8388C13.817 81.4946 12.5 78.3152 12.5 75V25C12.5 21.6848 13.817 18.5054 16.1612 16.1612C18.5054 13.817 21.6848 12.5 25 12.5H75ZM75 20.8333H25C23.8949 20.8333 22.8351 21.2723 22.0537 22.0537C21.2723 22.8351 20.8333 23.8949 20.8333 25V75C20.8333 76.1051 21.2723 77.1649 22.0537 77.9463C22.8351 78.7277 23.8949 79.1667 25 79.1667H75C76.1051 79.1667 77.1649 78.7277 77.9463 77.9463C78.7277 77.1649 79.1667 76.1051 79.1667 75V25C79.1667 23.8949 78.7277 22.8351 77.9463 22.0537C77.1649 21.2723 76.1051 20.8333 75 20.8333ZM33.3333 41.6667C34.3539 41.6668 35.3389 42.0415 36.1016 42.7196C36.8642 43.3978 37.3514 44.3323 37.4708 45.3458L37.5 45.8333V66.6667C37.4988 67.7287 37.0922 68.7501 36.3631 69.5224C35.6341 70.2946 34.6377 70.7593 33.5775 70.8215C32.5173 70.8838 31.4734 70.5389 30.659 69.8572C29.8446 69.1756 29.3213 68.2087 29.1958 67.1542L29.1667 66.6667V45.8333C29.1667 44.7283 29.6057 43.6685 30.3871 42.8871C31.1685 42.1057 32.2283 41.6667 33.3333 41.6667ZM45.8333 37.5C46.8091 37.4999 47.7541 37.8422 48.5033 38.4673C49.2526 39.0925 49.7587 39.9608 49.9333 40.9208C50.7718 40.4346 51.6386 39.9991 52.5292 39.6167C55.3083 38.4292 59.4708 37.775 63.2292 38.9542C65.2 39.5792 67.1792 40.7458 68.6458 42.7333C69.9583 44.5042 70.6667 46.6583 70.8083 49.0792L70.8333 50V66.6667C70.8322 67.7287 70.4255 68.7501 69.6965 69.5224C68.9674 70.2946 67.971 70.7593 66.9109 70.8215C65.8507 70.8838 64.8068 70.5389 63.9924 69.8572C63.178 69.1756 62.6546 68.2087 62.5292 67.1542L62.5 66.6667V50C62.5 48.625 62.1667 47.9833 61.95 47.6875C61.639 47.3006 61.2104 47.0256 60.7292 46.9042C59.2792 46.4458 57.1917 46.6875 55.8042 47.2792C53.7208 48.1708 51.8125 49.5708 50.5125 50.8667L50 51.4167V66.6667C49.9988 67.7287 49.5922 68.7501 48.8631 69.5224C48.1341 70.2946 47.1377 70.7593 46.0775 70.8215C45.0173 70.8838 43.9734 70.5389 43.159 69.8572C42.3446 69.1756 41.8213 68.2087 41.6958 67.1542L41.6667 66.6667V41.6667C41.6667 40.5616 42.1057 39.5018 42.8871 38.7204C43.6685 37.939 44.7283 37.5 45.8333 37.5ZM33.3333 29.1667C34.4384 29.1667 35.4982 29.6057 36.2796 30.3871C37.061 31.1685 37.5 32.2283 37.5 33.3333C37.5 34.4384 37.061 35.4982 36.2796 36.2796C35.4982 37.061 34.4384 37.5 33.3333 37.5C32.2283 37.5 31.1685 37.061 30.3871 36.2796C29.6057 35.4982 29.1667 34.4384 29.1667 33.3333C29.1667 32.2283 29.6057 31.1685 30.3871 30.3871C31.1685 29.6057 32.2283 29.1667 33.3333 29.1667Z" fill="#111111"/>
</g>
<defs>
<clipPath id="clip0_62_887">
<rect width="100" height="100" fill="white"/>
</clipPath>
</defs>
</svg>
