<svg width="114" height="113" viewBox="0 0 114 113" fill="none" xmlns="http://www.w3.org/2000/svg">
<path d="M30.6085 42.4951C18.2206 45.6896 10.1405 51.1624 10.1405 57.4104C10.1405 67.3084 30.8339 75.3791 56.413 75.3791C59.8893 75.3791 62.3321 75.1959 65.5735 74.9234" stroke="#699BF7" stroke-width="8.33333" stroke-linecap="round" stroke-linejoin="round"/>
<path d="M46.9565 74.9093C45.0163 72.1094 43.1701 69.5868 41.4132 66.4534C28.4898 43.4346 25.0276 20.5567 33.7559 15.3752C39.1583 12.1009 48.0699 16.5637 57.1223 25.9638" stroke="#699BF7" stroke-width="8.33333" stroke-linecap="round" stroke-linejoin="round"/>
<path d="M30.9467 72.4993C27.6489 85.1267 28.316 94.6537 33.5774 97.8434C41.9534 102.917 58.884 88.6453 71.3611 65.8802C73.0523 62.7327 74.5696 59.637 75.9085 56.5881" stroke="#699BF7" stroke-width="8.33333" stroke-linecap="round" stroke-linejoin="round"/>
<path d="M57.1176 87.2172C66.1748 96.6127 75.0488 101.076 80.5029 97.8012C89.1936 92.6243 85.769 69.7465 72.8315 46.723C71.0276 43.5426 69.1814 41.0669 67.2882 38.2671" stroke="#699BF7" stroke-width="8.33333" stroke-linecap="round" stroke-linejoin="round"/>
<path d="M83.7067 70.6813C95.9771 67.454 104.095 61.9906 104.095 55.7614C104.095 45.8492 83.3872 37.7974 57.8458 37.7974C54.3366 37.7974 51.8985 37.9336 48.6618 38.2061" stroke="#699BF7" stroke-width="8.33333" stroke-linecap="round" stroke-linejoin="round"/>
<path d="M38.3268 56.5882C39.6656 53.4877 41.1783 50.4436 42.8742 47.2961C55.309 24.5404 72.249 10.2312 80.672 15.347C85.8864 18.5367 86.6005 28.059 83.3027 40.6818M58.3391 56.6587H58.2921C58.2451 57.2694 57.7283 57.7861 57.0707 57.7861C56.7561 57.7706 56.4594 57.6355 56.2411 57.4085C56.0228 57.1815 55.8994 56.8796 55.8962 56.5647C55.8962 55.907 56.413 55.3903 57.0237 55.3903H56.9767C57.5874 55.3433 58.1511 55.907 58.1511 56.5177" stroke="#699BF7" stroke-width="8.33333" stroke-linecap="round" stroke-linejoin="round"/>
</svg>
