<svg width="114" height="113" viewBox="0 0 114 113" fill="none" xmlns="http://www.w3.org/2000/svg">
<g clip-path="url(#clip0_5_80)">
<path d="M57.2255 112.961C88.3592 112.961 113.598 87.7219 113.598 56.5882C113.598 25.4545 88.3592 0.215698 57.2255 0.215698C26.0918 0.215698 0.852936 25.4545 0.852936 56.5882C0.852936 87.7219 26.0918 112.961 57.2255 112.961Z" fill="black"/>
<path d="M94.4992 98.8799L44.1603 34.0392H34.6765V79.1187H42.2638V43.6745L88.5422 103.468C90.6274 102.073 92.6175 100.54 94.4992 98.8799Z" fill="url(#paint0_linear_5_80)"/>
<path d="M72.8847 34.0392H80.4007V79.1372H72.8847V34.0392Z" fill="url(#paint1_linear_5_80)"/>
</g>
<defs>
<linearGradient id="paint0_linear_5_80" x1="69.1262" y1="73.1867" x2="91.362" y2="100.747" gradientUnits="userSpaceOnUse">
<stop stop-color="white"/>
<stop offset="1" stop-color="white" stop-opacity="0"/>
</linearGradient>
<linearGradient id="paint1_linear_5_80" x1="76.6426" y1="34.0391" x2="76.5167" y2="67.1579" gradientUnits="userSpaceOnUse">
<stop stop-color="white"/>
<stop offset="1" stop-color="white" stop-opacity="0"/>
</linearGradient>
<clipPath id="clip0_5_80">
<rect width="112.745" height="112.745" fill="white" transform="translate(0.852936 0.215698)"/>
</clipPath>
</defs>
</svg>
