<svg width="110" height="113" viewBox="0 0 110 113" fill="none" xmlns="http://www.w3.org/2000/svg">
<g clip-path="url(#clip0_5_75)">
<path d="M109.062 67.7286C108.406 65.7432 106.689 64.3604 104.468 64.0286C103.421 63.8722 102.222 63.9389 100.803 64.2314C98.3294 64.7418 96.4943 64.9361 95.155 64.9736C100.21 56.4388 104.321 46.706 106.687 37.5441C110.514 22.7297 108.469 15.9808 106.079 12.9281C99.7558 4.84806 90.5299 0.507371 79.3997 0.374554C73.4622 0.301953 68.2499 1.47425 65.5308 2.31727C62.9991 1.87056 60.277 1.62116 57.4208 1.57503C52.0667 1.48962 47.3361 2.65679 43.294 5.05561C41.0561 4.29885 37.4645 3.23204 33.3169 2.5513C23.5619 0.94981 15.6996 2.19769 9.94873 6.26036C2.98501 11.1793 -0.24317 19.7257 0.353867 31.6622C0.543484 35.4519 2.66343 46.9827 6.00137 57.9181C7.91975 64.2036 9.96539 69.4232 12.0815 73.4334C15.0825 79.1197 18.2936 82.4684 21.8984 83.671C23.9189 84.344 27.5899 84.8155 31.451 81.5997C31.9404 82.1925 32.5934 82.7814 33.4599 83.3285C34.5605 84.0224 35.9062 84.5896 37.2501 84.9257C42.0935 86.1364 46.6302 85.8336 50.5007 84.1365C50.5246 84.8249 50.5429 85.4826 50.5583 86.0506C50.5839 86.9718 50.6096 87.875 50.6433 88.7197C50.8726 94.4313 51.2613 98.8723 52.4126 101.98C52.4758 102.15 52.5608 102.411 52.6505 102.687C53.2249 104.446 54.1854 107.39 56.629 109.696C59.1594 112.084 62.2202 112.817 65.0234 112.817C66.4293 112.817 67.7707 112.632 68.9473 112.38C73.1411 111.481 77.9041 110.112 81.3497 105.206C84.6073 100.568 86.1909 93.5827 86.4775 82.576C86.5146 82.2646 86.5488 81.9674 86.5817 81.6843L86.65 81.1026L87.4174 81.1701L87.6152 81.1833C91.8867 81.3781 97.1097 80.4723 100.317 78.9822C102.852 77.8061 110.974 73.5179 109.062 67.7286Z" fill="black"/>
<path d="M101.758 68.8544C89.0574 71.4744 88.184 67.1743 88.184 67.1743C101.594 47.2761 107.2 22.0182 102.363 15.8364C89.1645 -1.02623 66.3187 6.94877 65.9374 7.15547L65.8148 7.17768C63.3054 6.65666 60.4974 6.34661 57.341 6.29494C51.5944 6.20098 47.2349 7.80162 43.9269 10.3102C43.9269 10.3102 3.17206 -6.47942 5.06781 31.426C5.47095 39.4898 16.6259 92.442 29.9307 76.448C34.7937 70.5994 39.4926 65.6544 39.4926 65.6544C41.8261 67.2046 44.62 67.9955 47.5488 67.7115L47.7764 67.5185C47.7055 68.2445 47.738 68.9547 47.8674 69.7956C44.4398 73.6251 45.4472 74.2973 38.5954 75.7079C31.662 77.1369 35.7349 79.6805 38.3942 80.3458C41.6181 81.1517 49.0764 82.2937 54.1158 75.239L53.915 76.044C55.2577 77.1198 56.2007 83.0406 56.0427 88.4084C55.8847 93.7757 55.7792 97.4609 56.837 100.339C57.8957 103.218 58.9501 109.694 67.9578 107.764C75.484 106.151 79.3843 101.972 79.9271 94.9993C80.3119 90.0428 81.1836 90.7756 81.2382 86.3439L81.9373 84.2462C82.7432 77.5272 82.0655 75.3594 86.7021 76.3677L87.8295 76.4668C91.2418 76.6218 95.7089 75.9176 98.3306 74.6992C103.976 72.0796 107.324 67.7051 101.757 68.8544H101.758Z" fill="#336791"/>
<path d="M46.3124 35.0322C45.1679 34.8729 44.1314 35.0202 43.607 35.4174C43.3123 35.6408 43.2209 35.8996 43.1961 36.0777C43.1304 36.5496 43.4609 37.0714 43.6642 37.3405C44.239 38.1024 45.0786 38.626 45.9097 38.7413C46.0301 38.7583 46.1501 38.766 46.2693 38.766C47.6551 38.766 48.9154 37.6868 49.0264 36.8904C49.1652 35.8927 47.717 35.2274 46.3124 35.0322ZM84.2289 35.0638C84.1196 34.2819 82.7282 34.0589 81.4078 34.2426C80.089 34.4262 78.8103 35.0215 78.9171 35.8052C79.0025 36.4146 80.1031 37.4549 81.4056 37.4549C81.5158 37.4549 81.6268 37.4477 81.7387 37.4319C82.6082 37.3114 83.2463 36.7593 83.5495 36.4411C84.0107 35.9559 84.2781 35.4153 84.2289 35.0638Z" fill="white"/>
<path d="M105.984 68.5567C105.5 67.0923 103.941 66.6213 101.352 67.156C93.6624 68.7429 90.9087 67.6437 90.0046 66.9779C95.9813 57.8729 100.898 46.8665 103.551 36.5978C104.807 31.7335 105.501 27.216 105.558 23.5339C105.621 19.4925 104.932 16.5227 103.513 14.7086C97.7891 7.39509 89.3887 3.47207 79.2203 3.36445C72.2297 3.28587 66.3234 5.07484 65.1784 5.57792C62.7672 4.97833 60.1386 4.6102 57.2769 4.56322C52.0291 4.47823 47.4928 5.73466 43.7372 8.29577C42.1058 7.68848 37.8899 6.24116 32.7339 5.41052C23.8202 3.97558 16.7369 5.06289 11.6822 8.64382C5.65073 12.917 2.86627 20.5555 3.40565 31.3466C3.58716 34.9771 5.65586 46.1457 8.92034 56.8415C13.2175 70.9193 17.8887 78.8887 22.8034 80.5282C23.3786 80.72 24.0419 80.8541 24.7734 80.8541C26.5662 80.8541 28.7643 80.0461 31.0513 77.2966C33.8407 73.9504 36.7261 70.6854 39.704 67.5057C41.6361 68.5426 43.7586 69.1217 45.9293 69.1798C45.9336 69.2366 45.9392 69.2934 45.9443 69.3498C45.5706 69.7954 45.2047 70.2474 44.8467 70.7057C43.3426 72.6151 43.0296 73.0127 38.1879 74.0095C36.8107 74.2939 33.1529 75.0477 33.099 77.6118C33.041 80.4133 37.4231 81.5899 37.9223 81.7146C39.6622 82.1502 41.3384 82.365 42.9369 82.365C46.8245 82.365 50.2457 81.0872 52.9798 78.615C52.8956 88.6023 53.312 98.4436 54.5112 101.442C55.4935 103.897 57.8927 109.896 65.4714 109.895C66.5835 109.895 67.8075 109.766 69.154 109.477C77.0637 107.782 80.4985 104.286 81.8271 96.5786C82.5382 92.4595 83.7583 82.6238 84.3323 77.3479C85.5435 77.7258 87.1027 77.8988 88.7883 77.8983C92.3039 77.8983 96.3606 77.1514 98.9046 75.9706C101.763 74.6433 106.92 71.3865 105.984 68.5567ZM87.1484 32.9054C87.1223 34.4629 86.9079 35.8769 86.6807 37.3528C86.436 38.9402 86.1832 40.5814 86.1196 42.5737C86.0568 44.5126 86.2989 46.5283 86.533 48.4779C87.0061 52.4154 87.4917 56.4691 85.6122 60.469C85.3 59.9158 85.0219 59.344 84.7794 58.7569C84.5458 58.1906 84.0385 57.2809 83.336 56.022C80.6032 51.121 74.2036 39.644 77.4796 34.9608C78.4555 33.5669 80.932 32.1337 87.1484 32.9054ZM79.6132 6.51832C88.7242 6.71947 95.9314 10.1279 101.034 16.6483C104.948 21.6497 100.638 44.4067 88.1622 64.0392C88.0367 63.8797 87.9106 63.7207 87.7838 63.5622L87.6258 63.3649C90.8497 58.0407 90.2194 52.7728 89.6582 48.1025C89.4276 46.1858 89.2098 44.3755 89.2653 42.6749C89.3225 40.8727 89.5608 39.3267 89.7915 37.832C90.0746 35.9901 90.3629 34.0841 90.2834 31.8373C90.3428 31.6015 90.3667 31.3231 90.3355 30.9925C90.1327 28.838 87.6728 22.3898 82.6591 16.5535C79.9164 13.3612 75.917 9.78878 70.4561 7.37928C72.805 6.89243 76.0169 6.43846 79.6132 6.51832ZM28.6311 75.2843C26.1114 78.3139 24.3715 77.7331 23.7993 77.5426C20.071 76.299 15.7448 68.4188 11.9307 55.9229C8.63036 45.1105 6.70174 34.2378 6.54885 31.189C6.06712 21.5467 8.40445 14.8269 13.4963 11.2156C21.7831 5.3392 35.4073 8.8565 40.8819 10.6404C40.8033 10.7181 40.7213 10.7907 40.6436 10.8697C31.6598 19.9422 31.8729 35.443 31.8951 36.3906C31.8943 36.7562 31.925 37.2738 31.9669 37.9857C32.1215 40.593 32.4093 45.4453 31.6406 50.9403C30.9266 56.0467 32.5007 61.0447 35.9587 64.6529C36.3136 65.0225 36.6866 65.3743 37.0763 65.7069C35.5372 67.3554 32.192 71.0008 28.6311 75.2843ZM38.2311 62.4753C35.4441 59.567 34.1782 55.5219 34.7578 51.3759C35.5692 45.5713 35.2698 40.5157 35.1088 37.7995C35.0862 37.4194 35.0661 37.0863 35.0546 36.8237C36.3669 35.6599 42.4488 32.4014 46.786 33.3952C48.7651 33.8483 49.9711 35.1961 50.4725 37.5143C53.0673 49.5161 50.8158 54.5183 49.0068 58.5382C48.634 59.3663 48.2816 60.1491 47.981 60.9588L47.7478 61.5849C47.1576 63.1676 46.6084 64.6393 46.268 66.0366C43.305 66.0281 40.4228 64.7623 38.2311 62.4749M38.6859 78.6607C37.8207 78.4446 37.0426 78.0692 36.586 77.7578C36.9674 77.5785 37.646 77.3342 38.823 77.0916C44.5188 75.9193 45.3985 75.0917 47.3194 72.6527C47.7597 72.0933 48.259 71.4595 48.9504 70.6874L48.9513 70.6865C49.9809 69.5334 50.452 69.729 51.3061 70.0835C51.9984 70.3696 52.6727 71.2374 52.946 72.1923C53.0754 72.6433 53.2206 73.4992 52.7453 74.1654C48.7326 79.7838 42.8852 79.7117 38.6859 78.6607ZM68.4946 106.399C61.5266 107.892 59.0595 104.337 57.4336 100.273C56.3843 97.6488 55.8684 85.8166 56.2344 72.7497C56.2391 72.5758 56.2143 72.408 56.1665 72.25C56.1237 71.938 56.0587 71.6294 55.9718 71.3267C55.4277 69.4254 54.1017 67.835 52.5108 67.1756C51.8788 66.9138 50.7189 66.4334 49.3249 66.79C49.6222 65.5651 50.1376 64.1819 50.6967 62.6842L50.9311 62.0542C51.1951 61.344 51.5265 60.6082 51.8767 59.8292C53.7698 55.6235 56.3625 49.8628 53.5486 36.8489C52.4946 31.9744 48.9747 29.5939 43.639 30.147C40.4403 30.4779 37.5136 31.7685 36.0539 32.5086C35.74 32.6675 35.453 32.8212 35.1848 32.9707C35.5922 28.0595 37.1314 18.881 42.8891 13.0738C46.5144 9.41809 51.3424 7.61246 57.2248 7.70983C68.8153 7.89945 76.248 13.8476 80.4426 18.8045C84.0573 23.0756 86.0145 27.3783 86.7956 29.699C80.9213 29.1015 76.9261 30.261 74.901 33.1565C70.495 39.4548 77.3113 51.6791 80.5874 57.5543C81.1882 58.6309 81.7067 59.5615 81.8698 59.9569C82.9366 62.5424 84.3178 64.2686 85.3261 65.5284C85.6353 65.9145 85.9351 66.289 86.1631 66.6162C84.384 67.1291 81.1882 68.3142 81.4795 74.238C81.2446 77.2103 79.5744 91.1267 78.7258 96.0435C77.6056 102.539 75.2153 104.958 68.4946 106.399ZM97.5794 73.1161C95.7601 73.9604 92.7156 74.5937 89.8235 74.73C86.6291 74.8794 85.0028 74.3721 84.6201 74.0599C84.4408 70.3683 85.8146 69.9827 87.2688 69.5744C87.4973 69.5104 87.7202 69.4476 87.9354 69.3724C88.0691 69.4813 88.2156 69.5894 88.3762 69.6953C90.9437 71.3899 95.5231 71.5727 101.988 70.2381L102.059 70.224C101.187 71.0393 99.6951 72.1334 97.5794 73.1161Z" fill="white"/>
</g>
<defs>
<clipPath id="clip0_5_75">
<rect width="109.329" height="112.745" fill="white" transform="translate(0.15686 0.215698)"/>
</clipPath>
</defs>
</svg>
