<svg width="113" height="113" viewBox="0 0 113 113" fill="none" xmlns="http://www.w3.org/2000/svg">
<path d="M84.0179 29.2581C87.0172 29.9559 89.7425 31.5264 91.8502 33.7714C93.0111 34.9865 94.0192 36.3389 94.852 37.7986C94.8908 37.9571 89.4473 41.6143 86.146 43.6543C86.0262 43.7353 85.5505 43.2174 85.0115 42.4211C84.4084 41.3844 83.5524 40.5176 82.5234 39.9014C81.4945 39.2853 80.3262 38.94 79.1276 38.8978C75.333 38.6371 72.8878 40.6242 72.9055 43.9467C72.8727 44.7629 73.0588 45.5731 73.4445 46.2932C74.2795 48.0196 75.8298 49.0554 80.699 51.1659C89.6622 55.0239 93.5096 57.5677 95.8843 61.1826C97.2266 63.4666 98.0533 66.0165 98.3065 68.6536C98.5597 71.2907 98.2332 73.9513 97.35 76.449C96.1362 79.1881 94.2113 81.5524 91.7752 83.2964C89.3391 85.0405 86.4806 86.1007 83.4965 86.367C80.3244 86.7309 77.1193 86.6977 73.9554 86.2684C69.1091 85.4721 64.6447 83.146 61.2152 79.6305C59.9194 78.1713 58.8223 76.5471 57.9526 74.8001C58.3183 74.5281 58.7034 74.2831 59.1048 74.0672C59.6614 73.7501 61.7684 72.5381 63.7555 71.386L67.3633 69.272L68.1173 70.3713C69.3872 72.1874 71.0037 73.7344 72.8737 74.9234C74.7623 75.9593 76.9016 76.4502 79.0529 76.3413C81.2042 76.2324 83.2829 75.5281 85.0573 74.3068C85.9725 73.4147 86.5447 72.229 86.6735 70.9574C86.8024 69.6858 86.4797 68.4094 85.7619 67.3519C84.7895 65.9602 82.8024 64.7904 77.1545 62.3417C72.726 60.8484 68.6923 58.3733 65.3551 55.1014C63.7658 53.2903 62.5921 51.1534 61.9163 48.8405C61.4166 46.2057 61.3429 43.5079 61.6979 40.8497C62.3609 37.7909 63.9482 35.0099 66.2448 32.8835C68.5413 30.7572 71.4361 29.3882 74.5367 28.9622C77.6941 28.5849 80.8902 28.6846 84.0179 29.2581ZM54.6231 34.4831L54.6619 39.606H38.3491V85.9301H26.8456V39.6166H10.5328V34.5853C10.4894 32.8623 10.5364 31.1382 10.6737 29.4202C10.7336 29.3391 20.6516 29.3004 32.6766 29.3215L54.5597 29.3814L54.6231 34.4831Z" fill="#007ACC"/>
</svg>
