<svg width="103" height="98" viewBox="0 0 103 98" fill="none" xmlns="http://www.w3.org/2000/svg">
<path d="M17.5098 81.7593C15.1844 81.7593 13.1945 80.9688 11.5399 79.3877C9.88539 77.8067 9.05671 75.9038 9.05389 73.679V25.1972C9.05389 22.9752 9.88257 21.0736 11.5399 19.4925C13.1973 17.9115 15.1872 17.1196 17.5098 17.1169H85.1568C87.4822 17.1169 89.4736 17.9088 91.1309 19.4925C92.7883 21.0763 93.6155 22.9778 93.6127 25.1972V73.679C93.6127 75.9011 92.7854 77.804 91.1309 79.3877C89.4764 80.9714 87.485 81.762 85.1568 81.7593H17.5098ZM17.5098 73.679H61.9032V59.5385H17.5098V73.679ZM70.359 73.679H85.1568V37.3177H70.359V73.679ZM17.5098 51.4582H61.9032V37.3177H17.5098V51.4582Z" fill="white"/>
</svg>
